<mxfile host="app.diagrams.net" modified="2023-11-02T21:46:18.896Z" agent="Mozilla/5.0 (Windows NT 10.0; Win64; x64) AppleWebKit/537.36 (KHTML, like Gecko) Chrome/118.0.0.0 Safari/537.36" etag="45WFIqspcgu29dFF2sYD" version="21.6.2" type="github">
  <diagram id="2f404044-711c-603c-8f00-f6bb4c023d3c" name="Page-1">
    <mxGraphModel dx="1434" dy="750" grid="1" gridSize="10" guides="1" tooltips="1" connect="1" arrows="1" fold="1" page="1" pageScale="1" pageWidth="1169" pageHeight="827" background="none" math="0" shadow="0">
      <root>
        <mxCell id="0" />
        <mxCell id="1" parent="0" />
        <mxCell id="C3SjWa8mjKMF5vA95o0v-85" value="&lt;h2&gt;MERCADEO&lt;/h2&gt;" style="fontStyle=0;verticalAlign=top;align=center;spacingTop=-2;fillColor=none;rounded=0;whiteSpace=wrap;html=1;strokeColor=#4376BB;strokeWidth=1;dashed=0;container=1;collapsible=0;expand=0;recursiveResize=0;" parent="1" vertex="1">
          <mxGeometry x="80" y="20" width="990" height="770" as="geometry" />
        </mxCell>
        <mxCell id="C3SjWa8mjKMF5vA95o0v-62" value="BD SIESA" style="aspect=fixed;perimeter=ellipsePerimeter;html=1;align=center;shadow=0;dashed=0;image;image=img/lib/ibm/data/data_services.svg;strokeColor=#FF0000;fillColor=#FFFF66;gradientColor=none;fontColor=#4277BB;labelBackgroundColor=#ffffff;spacingTop=3;" parent="C3SjWa8mjKMF5vA95o0v-85" vertex="1">
          <mxGeometry x="710" y="80" width="60" height="60" as="geometry" />
        </mxCell>
        <mxCell id="C3SjWa8mjKMF5vA95o0v-63" value="INTEGRACION&lt;br&gt;SIESA-HUBSPOT" style="aspect=fixed;perimeter=ellipsePerimeter;html=1;align=center;shadow=0;dashed=0;image;image=img/lib/ibm/data/device_registry.svg;strokeColor=#FF0000;fillColor=#FFFF66;gradientColor=none;fontColor=#4277BB;labelBackgroundColor=#ffffff;spacingTop=3;" parent="C3SjWa8mjKMF5vA95o0v-85" vertex="1">
          <mxGeometry x="400" y="140" width="60" height="60" as="geometry" />
        </mxCell>
        <mxCell id="C3SjWa8mjKMF5vA95o0v-78" style="edgeStyle=orthogonalEdgeStyle;rounded=0;orthogonalLoop=1;jettySize=auto;html=1;" parent="C3SjWa8mjKMF5vA95o0v-85" source="C3SjWa8mjKMF5vA95o0v-66" target="C3SjWa8mjKMF5vA95o0v-62" edge="1">
          <mxGeometry relative="1" as="geometry" />
        </mxCell>
        <mxCell id="C3SjWa8mjKMF5vA95o0v-66" value="API-WEBSERVICE" style="aspect=fixed;perimeter=ellipsePerimeter;html=1;align=center;shadow=0;dashed=0;image;image=img/lib/ibm/management/api_management.svg;strokeColor=#FF0000;fillColor=#FFFF66;gradientColor=none;fontColor=#4277BB;labelBackgroundColor=#ffffff;spacingTop=3;" parent="C3SjWa8mjKMF5vA95o0v-85" vertex="1">
          <mxGeometry x="530" y="140" width="60" height="60" as="geometry" />
        </mxCell>
        <mxCell id="C3SjWa8mjKMF5vA95o0v-77" style="edgeStyle=orthogonalEdgeStyle;rounded=0;orthogonalLoop=1;jettySize=auto;html=1;" parent="C3SjWa8mjKMF5vA95o0v-85" source="C3SjWa8mjKMF5vA95o0v-63" target="C3SjWa8mjKMF5vA95o0v-66" edge="1">
          <mxGeometry relative="1" as="geometry" />
        </mxCell>
        <mxCell id="C3SjWa8mjKMF5vA95o0v-71" style="edgeStyle=orthogonalEdgeStyle;rounded=0;orthogonalLoop=1;jettySize=auto;html=1;" parent="C3SjWa8mjKMF5vA95o0v-85" source="C3SjWa8mjKMF5vA95o0v-67" target="C3SjWa8mjKMF5vA95o0v-63" edge="1">
          <mxGeometry relative="1" as="geometry" />
        </mxCell>
        <mxCell id="C3SjWa8mjKMF5vA95o0v-67" value="&lt;h2&gt;HUBSPOT&lt;/h2&gt;" style="image;aspect=fixed;perimeter=ellipsePerimeter;html=1;align=center;shadow=0;dashed=0;fontColor=#4277BB;labelBackgroundColor=default;fontSize=12;spacingTop=3;image=img/lib/ibm/applications/automation_tools.svg;" parent="C3SjWa8mjKMF5vA95o0v-85" vertex="1">
          <mxGeometry x="250" y="70" width="60" height="60" as="geometry" />
        </mxCell>
        <mxCell id="C3SjWa8mjKMF5vA95o0v-74" style="edgeStyle=orthogonalEdgeStyle;rounded=0;orthogonalLoop=1;jettySize=auto;html=1;entryX=0;entryY=0.5;entryDx=0;entryDy=0;" parent="C3SjWa8mjKMF5vA95o0v-85" source="C3SjWa8mjKMF5vA95o0v-70" target="C3SjWa8mjKMF5vA95o0v-63" edge="1">
          <mxGeometry relative="1" as="geometry" />
        </mxCell>
        <mxCell id="C3SjWa8mjKMF5vA95o0v-70" value="&lt;h2&gt;SIESA ERP&lt;/h2&gt;" style="image;aspect=fixed;perimeter=ellipsePerimeter;html=1;align=center;shadow=0;dashed=0;fontColor=#4277BB;labelBackgroundColor=default;fontSize=12;spacingTop=3;image=img/lib/ibm/applications/automation_tools.svg;" parent="C3SjWa8mjKMF5vA95o0v-85" vertex="1">
          <mxGeometry x="250" y="200" width="60" height="60" as="geometry" />
        </mxCell>
        <mxCell id="C3SjWa8mjKMF5vA95o0v-81" style="edgeStyle=orthogonalEdgeStyle;rounded=0;orthogonalLoop=1;jettySize=auto;html=1;entryX=0;entryY=0.5;entryDx=0;entryDy=0;" parent="C3SjWa8mjKMF5vA95o0v-85" source="C3SjWa8mjKMF5vA95o0v-73" target="C3SjWa8mjKMF5vA95o0v-67" edge="1">
          <mxGeometry relative="1" as="geometry" />
        </mxCell>
        <mxCell id="C3SjWa8mjKMF5vA95o0v-82" style="edgeStyle=orthogonalEdgeStyle;rounded=0;orthogonalLoop=1;jettySize=auto;html=1;entryX=0;entryY=0.5;entryDx=0;entryDy=0;" parent="C3SjWa8mjKMF5vA95o0v-85" source="C3SjWa8mjKMF5vA95o0v-73" target="C3SjWa8mjKMF5vA95o0v-70" edge="1">
          <mxGeometry relative="1" as="geometry" />
        </mxCell>
        <mxCell id="hMxj7U189vFfm_DoekN3-2" style="edgeStyle=orthogonalEdgeStyle;rounded=0;orthogonalLoop=1;jettySize=auto;html=1;entryX=0;entryY=0.5;entryDx=0;entryDy=0;" edge="1" parent="C3SjWa8mjKMF5vA95o0v-85" source="C3SjWa8mjKMF5vA95o0v-73" target="hMxj7U189vFfm_DoekN3-1">
          <mxGeometry relative="1" as="geometry" />
        </mxCell>
        <mxCell id="C3SjWa8mjKMF5vA95o0v-73" value="&lt;h2&gt;USUARIO&lt;/h2&gt;" style="image;aspect=fixed;perimeter=ellipsePerimeter;html=1;align=center;shadow=0;dashed=0;fontColor=#4277BB;labelBackgroundColor=default;fontSize=12;spacingTop=3;image=img/lib/ibm/users/user.svg;" parent="C3SjWa8mjKMF5vA95o0v-85" vertex="1">
          <mxGeometry x="45" y="240" width="60" height="60" as="geometry" />
        </mxCell>
        <mxCell id="hMxj7U189vFfm_DoekN3-4" style="edgeStyle=orthogonalEdgeStyle;rounded=0;orthogonalLoop=1;jettySize=auto;html=1;" edge="1" parent="C3SjWa8mjKMF5vA95o0v-85" source="C3SjWa8mjKMF5vA95o0v-75" target="hMxj7U189vFfm_DoekN3-3">
          <mxGeometry relative="1" as="geometry" />
        </mxCell>
        <mxCell id="C3SjWa8mjKMF5vA95o0v-75" value="&lt;h2&gt;BIG VISION&lt;/h2&gt;" style="image;aspect=fixed;perimeter=ellipsePerimeter;html=1;align=center;shadow=0;dashed=0;fontColor=#4277BB;labelBackgroundColor=default;fontSize=12;spacingTop=3;image=img/lib/ibm/applications/automation_tools.svg;" parent="C3SjWa8mjKMF5vA95o0v-85" vertex="1">
          <mxGeometry x="250" y="350" width="60" height="60" as="geometry" />
        </mxCell>
        <mxCell id="C3SjWa8mjKMF5vA95o0v-83" style="edgeStyle=orthogonalEdgeStyle;rounded=0;orthogonalLoop=1;jettySize=auto;html=1;entryX=0;entryY=0.5;entryDx=0;entryDy=0;" parent="C3SjWa8mjKMF5vA95o0v-85" source="C3SjWa8mjKMF5vA95o0v-73" target="C3SjWa8mjKMF5vA95o0v-75" edge="1">
          <mxGeometry relative="1" as="geometry" />
        </mxCell>
        <mxCell id="C3SjWa8mjKMF5vA95o0v-76" value="BD HUBSPOT" style="aspect=fixed;perimeter=ellipsePerimeter;html=1;align=center;shadow=0;dashed=0;image;image=img/lib/ibm/data/data_services.svg;strokeColor=#FF0000;fillColor=#FFFF66;gradientColor=none;fontColor=#4277BB;labelBackgroundColor=#ffffff;spacingTop=3;" parent="C3SjWa8mjKMF5vA95o0v-85" vertex="1">
          <mxGeometry x="710" y="210" width="60" height="60" as="geometry" />
        </mxCell>
        <mxCell id="C3SjWa8mjKMF5vA95o0v-79" style="edgeStyle=orthogonalEdgeStyle;rounded=0;orthogonalLoop=1;jettySize=auto;html=1;entryX=0;entryY=0.5;entryDx=0;entryDy=0;" parent="C3SjWa8mjKMF5vA95o0v-85" source="C3SjWa8mjKMF5vA95o0v-66" target="C3SjWa8mjKMF5vA95o0v-76" edge="1">
          <mxGeometry relative="1" as="geometry" />
        </mxCell>
        <mxCell id="C3SjWa8mjKMF5vA95o0v-80" value="&lt;h2&gt;OFFICE 365&lt;/h2&gt;" style="image;aspect=fixed;perimeter=ellipsePerimeter;html=1;align=center;shadow=0;dashed=0;fontColor=#4277BB;labelBackgroundColor=default;fontSize=12;spacingTop=3;image=img/lib/ibm/applications/automation_tools.svg;" parent="C3SjWa8mjKMF5vA95o0v-85" vertex="1">
          <mxGeometry x="250" y="490" width="60" height="60" as="geometry" />
        </mxCell>
        <mxCell id="C3SjWa8mjKMF5vA95o0v-84" style="edgeStyle=orthogonalEdgeStyle;rounded=0;orthogonalLoop=1;jettySize=auto;html=1;entryX=0;entryY=0.5;entryDx=0;entryDy=0;" parent="C3SjWa8mjKMF5vA95o0v-85" source="C3SjWa8mjKMF5vA95o0v-73" target="C3SjWa8mjKMF5vA95o0v-80" edge="1">
          <mxGeometry relative="1" as="geometry" />
        </mxCell>
        <mxCell id="hMxj7U189vFfm_DoekN3-1" value="&lt;h2&gt;REDES SOCIALES&lt;/h2&gt;" style="image;aspect=fixed;perimeter=ellipsePerimeter;html=1;align=center;shadow=0;dashed=0;fontColor=#4277BB;labelBackgroundColor=default;fontSize=12;spacingTop=3;image=img/lib/ibm/applications/automation_tools.svg;" vertex="1" parent="C3SjWa8mjKMF5vA95o0v-85">
          <mxGeometry x="250" y="620" width="60" height="60" as="geometry" />
        </mxCell>
        <mxCell id="hMxj7U189vFfm_DoekN3-7" style="edgeStyle=orthogonalEdgeStyle;rounded=0;orthogonalLoop=1;jettySize=auto;html=1;" edge="1" parent="C3SjWa8mjKMF5vA95o0v-85" source="hMxj7U189vFfm_DoekN3-3" target="hMxj7U189vFfm_DoekN3-6">
          <mxGeometry relative="1" as="geometry" />
        </mxCell>
        <mxCell id="hMxj7U189vFfm_DoekN3-3" value="INTEGRACION" style="aspect=fixed;perimeter=ellipsePerimeter;html=1;align=center;shadow=0;dashed=0;image;image=img/lib/ibm/data/device_registry.svg;strokeColor=#FF0000;fillColor=#FFFF66;gradientColor=none;fontColor=#4277BB;labelBackgroundColor=#ffffff;spacingTop=3;" vertex="1" parent="C3SjWa8mjKMF5vA95o0v-85">
          <mxGeometry x="410" y="350" width="60" height="60" as="geometry" />
        </mxCell>
        <mxCell id="hMxj7U189vFfm_DoekN3-6" value="BD SIESA" style="aspect=fixed;perimeter=ellipsePerimeter;html=1;align=center;shadow=0;dashed=0;image;image=img/lib/ibm/data/data_services.svg;strokeColor=#FF0000;fillColor=#FFFF66;gradientColor=none;fontColor=#4277BB;labelBackgroundColor=#ffffff;spacingTop=3;" vertex="1" parent="C3SjWa8mjKMF5vA95o0v-85">
          <mxGeometry x="590" y="350" width="60" height="60" as="geometry" />
        </mxCell>
      </root>
    </mxGraphModel>
  </diagram>
</mxfile>
